<svg xmlns="http://www.w3.org/2000/svg" style="isolation:isolate" viewBox="0 0 512 512"><defs><clipPath id="a"><path d="M0 0h512v512H0z"/></clipPath></defs><g clip-path="url(#a)"><path fill="#4677BA" d="M387.516 126.66c-5.415-.584-18.526-.847-19.54-.847-58.922 0-97.325 31.557-118.385 68.046-16.88 29.244-51.342 90.538-51.342 90.538-13.661 21.511-32.045 30.905-56.358 30.905-.048 0-.096-.004-.145-.004-35.381-.072-64.04-26.591-64.04-59.298 0-32.752 28.737-59.302 64.185-59.302 20.72 0 36.192 5.487 48.436 19.201l37.816-62.242c-23.991-17.465-54.245-27.915-87.159-27.915C63.121 125.742 0 184.06 0 256c0 60.776 45.053 111.825 105.984 126.207a152.29 152.29 0 0 0 35 4.051c.958 0 1.903-.049 2.856-.067 46.315-.853 90.458-15.859 112.16-54.907 21.702-39.048 46.383-85.785 56.908-102.49 10.526-16.706 20.367-23.571 35.285-28.563 6.823-2.284 14.182-3.533 21.858-3.533 35.448 0 64.185 26.55 64.185 59.302 0 32.752-28.737 59.302-64.185 59.302-28.709 0-46.503-7.324-63.646-28.385l-36.51 59.803c25.619 24.373 61.443 39.538 101.121 39.538C448.879 386.258 512 327.939 512 256c0-66.779-54.4-121.787-124.484-129.34z"/></g></svg>